<?xml version="1.0" encoding="UTF-8"?>
<svg width="120px" height="120px" viewBox="0 0 120 120" version="1.1" xmlns="http://www.w3.org/2000/svg" xmlns:xlink="http://www.w3.org/1999/xlink">
    <title>filter</title>
    <desc>Mix.</desc>
    <defs></defs>
    <g id="Page-1" stroke="none" stroke-width="1" fill="none" fill-rule="evenodd">
        <g id="filter">
            <rect id="Rectangle" fill="#6CCDF0" x="0" y="0" width="120" height="120"></rect>
            <path d="M50.4144144,78.1441441 C50.4144144,76.7747748 49.3873874,75.7477477 48.018018,75.7477477 L24.3963964,75.7477477 C23.027027,75.7477477 22,76.7747748 22,78.1441441 L22,95.6036036 C22,96.972973 23.027027,98 24.3963964,98 L48.018018,98 C49.3873874,98 50.4144144,96.972973 50.4144144,95.6036036 L50.4144144,78.1441441 L50.4144144,78.1441441 Z M31.5855856,53.8378378 L24.0540541,53.8378378 C22.3423423,53.8378378 21.6576577,55.2072072 22.6846847,55.8918919 L35.3513514,68.9009009 C35.6936937,69.5855856 36.7207207,69.5855856 37.4054054,68.9009009 L50.0720721,55.8918919 C51.0990991,54.8648649 50.0720721,53.8378378 48.7027027,53.8378378 L41.1711712,53.8378378 C41.1711712,45.6216216 49.045045,37.7477477 56.9189189,37.7477477 L56.9189189,28.5045045 C42.5405405,28.5045045 31.5855856,39.4594595 31.5855856,53.8378378 L31.5855856,53.8378378 Z M84.990991,51.0990991 C84.3063063,50.4144144 83.2792793,50.4144144 82.5945946,51.0990991 L70.2702703,64.1081081 C69.2432432,65.1351351 69.9279279,66.1621622 71.6396396,66.1621622 L79.1711712,66.1621622 C79.1711712,75.7477477 72.6666667,82.2522523 63.0810811,82.2522523 L63.0810811,91.4954955 C77.4594595,91.4954955 88.7567568,80.5405405 88.7567568,66.1621622 L96.2882883,66.1621622 C98,66.1621622 98.6846847,64.7927928 97.6576577,64.1081081 L84.990991,51.0990991 L84.990991,51.0990991 Z M98,24.3963964 C98,23.027027 96.972973,22 95.6036036,22 L71.981982,22 C70.6126126,22 69.5855856,23.027027 69.5855856,24.3963964 L69.5855856,41.8558559 C69.5855856,43.2252252 70.6126126,44.2522523 71.981982,44.2522523 L95.6036036,44.2522523 C96.972973,44.2522523 98,43.2252252 98,41.8558559 L98,24.3963964 L98,24.3963964 Z" id="Shape" fill="#FFFFFF"></path>
        </g>
    </g>
</svg>